[Header]
FileType HTR
DataType HTRS
FileVersion 1
NumSegments 64
NumFrames 4
DataFrameRate 24
EulerRotationOrder ZYX
CalibrationUnits mm
RotationUnits Degrees
GlobalAxisofGravity Y
BoneLengthAxis Y
ScaleFactor 1.0
[SegmentNames&Hierarchy]
Hips	GLOBAL
Spine	Hips
Spine1	Spine
Spine2	Spine1
Neck	Spine2
Head	Neck
LeftEye	Head
RightEye	Head
LeftShoulder	Spine2
LeftArm	LeftShoulder
LeftForeArm	LeftArm
LeftHand	LeftForeArm
LeftHandThumb1	LeftHand
LeftHandThumb2	LeftHandThumb1
LeftHandThumb3	LeftHandThumb2
LeftHandThumb4	LeftHandThumb3
LeftHandIndex1	LeftHand
LeftHandIndex2	LeftHandIndex1
LeftHandIndex3	LeftHandIndex2
LeftHandIndex4	LeftHandIndex3
LeftHandMiddle1	LeftHand
LeftHandMiddle2	LeftHandMiddle1
LeftHandMiddle3	LeftHandMiddle2
LeftHandMiddle4	LeftHandMiddle3
LeftHandRing1	LeftHand
LeftHandRing2	LeftHandRing1
LeftHandRing3	LeftHandRing2
LeftHandRing4	LeftHandRing3
LeftHandPinky1	LeftHand
LeftHandPinky2	LeftHandPinky1
LeftHandPinky3	LeftHandPinky2
LeftHandPinky4	LeftHandPinky3
RightShoulder	Spine2
RightArm	RightShoulder
RightForeArm	RightArm
RightHand	RightForeArm
RightHandPinky1	RightHand
RightHandPinky2	RightHandPinky1
RightHandPinky3	RightHandPinky2
RightHandPinky4	RightHandPinky3
RightHandRing1	RightHand
RightHandRing2	RightHandRing1
RightHandRing3	RightHandRing2
RightHandRing4	RightHandRing3
RightHandMiddle1	RightHand
RightHandMiddle2	RightHandMiddle1
RightHandMiddle3	RightHandMiddle2
RightHandMiddle4	RightHandMiddle3
RightHandIndex1	RightHand
RightHandIndex2	RightHandIndex1
RightHandIndex3	RightHandIndex2
RightHandIndex4	RightHandIndex3
RightHandThumb1	RightHand
RightHandThumb2	RightHandThumb1
RightHandThumb3	RightHandThumb2
RightHandThumb4	RightHandThumb3
LeftUpLeg	Hips
LeftLeg	LeftUpLeg
LeftFoot	LeftLeg
LeftToeBase	LeftFoot
RightUpLeg	Hips
RightLeg	RightUpLeg
RightFoot	RightLeg
RightToeBase	RightFoot
[BasePosition]
Hips	0	0	0	0	0	0	1
Spine	0	0	0	0	0	0	1
Spine1	0	0	0	0	0	0	1
Spine2	0	0	0	0	0	0	1
Neck	0	0	0	0	0	0	1
Head	0	0	0	0	0	0	1
LeftEye	0	0	0	0	0	0	1
RightEye	0	0	0	0	0	0	1
LeftShoulder	0	0	0	0	0	0	1
LeftArm	0	0	0	0	0	0	1
LeftForeArm	0	0	0	0	0	0	1
LeftHand	0	0	0	0	0	0	1
LeftHandThumb1	0	0	0	0	0	0	1
LeftHandThumb2	0	0	0	0	0	0	1
LeftHandThumb3	0	0	0	0	0	0	1
LeftHandThumb4	0	0	0	0	0	0	1
LeftHandIndex1	0	0	0	0	0	0	1
LeftHandIndex2	0	0	0	0	0	0	1
LeftHandIndex3	0	0	0	0	0	0	1
LeftHandIndex4	0	0	0	0	0	0	1
LeftHandMiddle1	0	0	0	0	0	0	1
LeftHandMiddle2	0	0	0	0	0	0	1
LeftHandMiddle3	0	0	0	0	0	0	1
LeftHandMiddle4	0	0	0	0	0	0	1
LeftHandRing1	0	0	0	0	0	0	1
LeftHandRing2	0	0	0	0	0	0	1
LeftHandRing3	0	0	0	0	0	0	1
LeftHandRing4	0	0	0	0	0	0	1
LeftHandPinky1	0	0	0	0	0	0	1
LeftHandPinky2	0	0	0	0	0	0	1
LeftHandPinky3	0	0	0	0	0	0	1
LeftHandPinky4	0	0	0	0	0	0	1
RightShoulder	0	0	0	0	0	0	1
RightArm	0	0	0	0	0	0	1
RightForeArm	0	0	0	0	0	0	1
RightHand	0	0	0	0	0	0	1
RightHandPinky1	0	0	0	0	0	0	1
RightHandPinky2	0	0	0	0	0	0	1
RightHandPinky3	0	0	0	0	0	0	1
RightHandPinky4	0	0	0	0	0	0	1
RightHandRing1	0	0	0	0	0	0	1
RightHandRing2	0	0	0	0	0	0	1
RightHandRing3	0	0	0	0	0	0	1
RightHandRing4	0	0	0	0	0	0	1
RightHandMiddle1	0	0	0	0	0	0	1
RightHandMiddle2	0	0	0	0	0	0	1
RightHandMiddle3	0	0	0	0	0	0	1
RightHandMiddle4	0	0	0	0	0	0	1
RightHandIndex1	0	0	0	0	0	0	1
RightHandIndex2	0	0	0	0	0	0	1
RightHandIndex3	0	0	0	0	0	0	1
RightHandIndex4	0	0	0	0	0	0	1
RightHandThumb1	0	0	0	0	0	0	1
RightHandThumb2	0	0	0	0	0	0	1
RightHandThumb3	0	0	0	0	0	0	1
RightHandThumb4	0	0	0	0	0	0	1
LeftUpLeg	0	0	0	0	0	0	1
LeftLeg	0	0	0	0	0	0	1
LeftFoot	0	0	0	0	0	0	1
LeftToeBase	0	0	0	0	0	0	1
RightUpLeg	0	0	0	0	0	0	1
RightLeg	0	0	0	0	0	0	1
RightFoot	0	0	0	0	0	0	1
RightToeBase	0	0	0	0	0	0	1
[Hips]
36	-72.78944397	700.1738281	-513.2196045	-25.42474937	1.001502514	-3.489492893	1.0
37	-68.79759216	813.6558838	-502.2602844	-36.33742142	-0.1037667692	-4.043727875	1.0
38	-65.76148224	960.645752	-510.9535217	-49.55971909	-0.6534704566	-1.443467021	1.0
39	-65.09248352	1062.783691	-551.3079224	-63.65106583	1.169007301	-0.2884156704	1.0
[Spine]
36	0	101.8159943	1.315000057	4.610266685	-0.6686386466	-0.4842254817	1.0
37	0	101.8159943	1.315000057	2.504664898	-1.421805739	-0.04991154745	1.0
38	0	101.8159943	1.315000057	0.01352579333	-1.200941324	-0.1963097155	1.0
39	0	101.8159943	1.315000057	-1.09374845	-1.825799465	-0.4188594222	1.0
[Spine1]
36	0	100.8349991	-10.00800037	9.229058266	-1.254207492	-1.496209383	1.0
37	0	100.8349991	-10.00800037	5.016626835	-2.692106485	-0.5323345065	1.0
38	0	100.8349991	-10.00800037	0.03028519265	-2.392787457	-0.3123429418	1.0
39	0	100.8349991	-10.00800037	-2.185680389	-4.023629665	-0.08809853345	1.0
[Spine2]
36	0	91	-13.73399925	9.22906208	-1.254208446	-1.496210217	1.0
37	0	91	-13.73399925	5.016631126	-2.692107201	-0.532335639	1.0
38	0	91	-13.73399925	0.03029594384	-2.39278698	-0.3123433292	1.0
39	0	91	-13.73399925	-2.185663939	-4.023631096	-0.08810060471	1.0
[Neck]
36	0	166.7169952	-25.16200066	-10.60892773	1.880795598	-6.997093201	1.0
37	0	166.7169952	-25.16200066	-11.93703365	1.890908718	-10.37602139	1.0
38	0	166.7169952	-25.16200066	-10.27238274	1.238969207	-8.72631073	1.0
39	0	166.7169952	-25.16200066	-6.908979893	1.036256552	-4.910912991	1.0
[Head]
36	0	96.17900085	16.84999847	-34.51210785	10.60811615	10.72597313	1.0
37	0	96.17900085	16.84999847	-19.23098946	6.632284641	18.50663948	1.0
38	0	96.17900085	16.84999847	-10.56447029	-0.4631506503	12.87193966	1.0
39	0	96.17900085	16.84999847	-22.95567131	-0.7002288699	-1.44722259	1.0
[LeftEye]
36	30.6760006	64.09500122	92.83599854	0	0	0	1.0
37	30.6760006	64.09500122	92.83599854	0	0	0	1.0
38	30.6760006	64.09500122	92.83599854	0	0	0	1.0
39	30.6760006	64.09500122	92.83599854	0	0	0	1.0
[RightEye]
36	-30.6760006	64.09500122	92.83499908	0	0	0	1.0
37	-30.6760006	64.09500122	92.83499908	0	0	0	1.0
38	-30.6760006	64.09500122	92.83499908	0	0	0	1.0
39	-30.6760006	64.09500122	92.83499908	0	0	0	1.0
[LeftShoulder]
36	45.70400238	109.4599991	-26.28000069	-0.721776545	0.1004979461	7.446335316	1.0
37	45.70400238	109.4599991	-26.28000069	-1.986902475	5.632503986	17.70597649	1.0
38	45.70400238	109.4599991	-26.28000069	0.8428009748	3.754838943	18.66977501	1.0
39	45.70400238	109.4599991	-26.28000069	1.505565047	-5.369673252	12.71689224	1.0
[LeftArm]
36	105.923996	-5.24600029	-22.32099915	-105.3852615	-37.24193573	48.60030746	1.0
37	105.923996	-5.24600029	-22.32099915	-122.3791656	-40.33765411	49.88777542	1.0
38	105.923996	-5.24600029	-22.32099915	-125.5531006	-53.24383545	49.28284454	1.0
39	105.923996	-5.24600029	-22.32099915	-84.80664825	-61.41455841	20.4080658	1.0
[LeftForeArm]
36	278.414978	-0.0009999999311	0	-458.7827148	-63.79081345	457.3413086	1.0
37	278.414978	-0.0009999999311	0	-530.7687378	-82.28925323	529.0111084	1.0
38	278.414978	-0.0009999999311	0	-535.282959	-75.54678345	534.0521851	1.0
39	278.414978	-0.0009999999311	0	-537.5167236	-74.9750061	536.6045532	1.0
[LeftHand]
36	283.2879944	0	0	-37.86783218	38.74076843	-0.2832162976	1.0
37	283.2879944	0	0	-38.20913696	42.44809341	0.1780457795	1.0
38	283.2879944	0	0	-18.55986214	34.27077103	16.48555756	1.0
39	283.2879944	0	0	-2.515150785	26.22085953	33.02075195	1.0
[LeftHandThumb1]
36	24.6609993	-15.75	26.8239994	-2.80756402	0.8585149646	13.2113409	1.0
37	24.6609993	-15.75	26.8239994	-1.918738008	1.888697624	13.4469595	1.0
38	24.6609993	-15.75	26.8239994	-1.012635589	2.928303242	13.71049786	1.0
39	24.6609993	-15.75	26.8239994	-0.1351153105	3.907755375	13.99214458	1.0
[LeftHandThumb2]
36	32.29800034	-18.64699936	18.64699936	3.923694849	10.44732666	1.839388967	1.0
37	32.29800034	-18.64699936	18.64699936	4.075387001	12.10340405	2.786032915	1.0
38	32.29800034	-18.64699936	18.64699936	4.218060017	13.77858639	3.737986565	1.0
39	32.29800034	-18.64699936	18.64699936	4.348028183	15.37172031	4.627896309	1.0
[LeftHandThumb3]
36	26.52600098	-15.31499958	15.31499958	3.601811159e-06	-8.438974328e-05	-6.943767221e-05	1.0
37	26.52600098	-15.31499958	15.31499958	3.601811159e-06	-8.438974328e-05	-6.943767221e-05	1.0
38	26.52600098	-15.31499958	15.31499958	3.601811159e-06	-8.438974328e-05	-6.943767221e-05	1.0
39	26.52600098	-15.31499958	15.31499958	3.601811159e-06	-8.438974328e-05	-6.943767221e-05	1.0
[LeftHandThumb4]
36	19.54599953	-11.28499985	11.28499985	0	0	0	1.0
37	19.54599953	-11.28499985	11.28499985	0	0	0	1.0
38	19.54599953	-11.28499985	11.28499985	0	0	0	1.0
39	19.54599953	-11.28499985	11.28499985	0	0	0	1.0
[LeftHandIndex1]
36	91.09299469	-5.170999527	22.60099792	-0.07163490355	-1.261006117	-11.04802513	1.0
37	91.09299469	-5.170999527	22.60099792	-0.1356964111	-1.458133578	-12.00175571	1.0
38	91.09299469	-5.170999527	22.60099792	-0.1989536285	-1.659016609	-12.9668808	1.0
39	91.09299469	-5.170999527	22.60099792	-0.2575788498	-1.851543069	-13.88567734	1.0
[LeftHandIndex2]
36	36.76399994	0	0	-0.6522129178	-0.3515121639	-25.31604767	1.0
37	36.76399994	0	0	-0.8059265614	-0.8116437197	-28.71479225	1.0
38	36.76399994	0	0	-0.9334843755	-1.285920262	-32.15475082	1.0
39	36.76399994	0	0	-1.028302431	-1.743900895	-35.43030167	1.0
[LeftHandIndex3]
36	28.83100128	0	0	-1.432096042e-06	3.907105395e-07	1.552835329e-06	1.0
37	28.83100128	0	0	-1.432096042e-06	3.907105395e-07	1.552835329e-06	1.0
38	28.83100128	0	0	-1.432096042e-06	3.907105395e-07	1.552835329e-06	1.0
39	28.83100128	0	0	-1.432096042e-06	3.907105395e-07	1.552835329e-06	1.0
[LeftHandIndex4]
36	23.92700005	0	0	0	0	0	1.0
37	23.92700005	0	0	0	0	0	1.0
38	23.92700005	0	0	0	0	0	1.0
39	23.92700005	0	0	0	0	0	1.0
[LeftHandMiddle1]
36	95.33399963	0	0	-0.8134214878	-0.2276000381	-19.60819817	1.0
37	95.33399963	0	0	-0.9092617631	-0.3940554857	-21.05601883	1.0
38	95.33399963	0	0	-1.002015471	-0.5649752617	-22.52145767	1.0
39	95.33399963	0	0	-1.08628571	-0.7298997641	-23.91679382	1.0
[LeftHandMiddle2]
36	36.98199844	0	0	-0.524677217	-1.829098225	-23.18506813	1.0
37	36.98199844	0	0	-0.6083373427	-2.261030197	-26.78708076	1.0
38	36.98199844	0	0	-0.6651805043	-2.702758789	-30.43414307	1.0
39	36.98199844	0	0	-0.6931166053	-3.125968695	-33.90812683	1.0
[LeftHandMiddle3]
36	29.50900078	0	0	0	-3.180554719e-15	-7.951386796e-16	1.0
37	29.50900078	0	0	0	-3.180554719e-15	-7.951386796e-16	1.0
38	29.50900078	0	0	0	-3.180554719e-15	-7.951386796e-16	1.0
39	29.50900078	0	0	0	-3.180554719e-15	-7.951386796e-16	1.0
[LeftHandMiddle4]
36	28.3390007	0	0	0	0	0	1.0
37	28.3390007	0	0	0	0	0	1.0
38	28.3390007	0	0	0	0	0	1.0
39	28.3390007	0	0	0	0	0	1.0
[LeftHandRing1]
36	91.04499817	-0.4390000105	-18.65100098	-3.013186455	5.300128937	-30.79442596	1.0
37	91.04499817	-0.4390000105	-18.65100098	-3.062204123	5.044520378	-32.36540222	1.0
38	91.04499817	-0.4390000105	-18.65100098	-3.106356382	4.783963203	-33.95492554	1.0
39	91.04499817	-0.4390000105	-18.65100098	-3.143151045	4.534297943	-35.46789932	1.0
[LeftHandRing2]
36	31.54000092	0	0	1.639517903	-2.484739542	-32.11967468	1.0
37	31.54000092	0	0	1.931695819	-2.59362793	-35.73590469	1.0
38	31.54000092	0	0	2.233909607	-2.68488884	-39.39762878	1.0
39	31.54000092	0	0	2.526604176	-2.753701448	-42.88529205	1.0
[LeftHandRing3]
36	29.37700081	0	0	1.590277359e-15	3.180554719e-15	-7.951386796e-16	1.0
37	29.37700081	0	0	1.590277359e-15	3.180554719e-15	-7.951386796e-16	1.0
38	29.37700081	0	0	1.590277359e-15	3.180554719e-15	-7.951386796e-16	1.0
39	29.37700081	0	0	1.590277359e-15	3.180554719e-15	-7.951386796e-16	1.0
[LeftHandRing4]
36	26.47500038	0	0	0	0	0	1.0
37	26.47500038	0	0	0	0	0	1.0
38	26.47500038	0	0	0	0	0	1.0
39	26.47500038	0	0	0	0	0	1.0
[LeftHandPinky1]
36	80.77799988	-4.887000084	-38.06099701	-3.812098503	10.40816402	-29.51863861	1.0
37	80.77799988	-4.887000084	-38.06099701	-3.822222233	9.926486015	-31.08693886	1.0
38	80.77799988	-4.887000084	-38.06099701	-3.827513933	9.436861992	-32.67298889	1.0
39	80.77799988	-4.887000084	-38.06099701	-3.827229261	8.969023705	-34.1811676	1.0
[LeftHandPinky2]
36	36	0	0	4.582692146	-4.581637859	-42.64604568	1.0
37	36	0	0	4.879958153	-4.4512043	-44.75746918	1.0
38	36	0	0	5.175768375	-4.307972908	-46.89438629	1.0
39	36	0	0	5.452520847	-4.161009789	-48.9320488	1.0
[LeftHandPinky3]
36	21.14200211	0	0	3.226109357e-06	2.925280342e-06	-5.739977951e-06	1.0
37	21.14200211	0	0	3.226109357e-06	2.925280342e-06	-5.739977951e-06	1.0
38	21.14200211	0	0	3.226109357e-06	2.925280342e-06	-5.739977951e-06	1.0
39	21.14200211	0	0	3.226109357e-06	2.925280342e-06	-5.739977951e-06	1.0
[LeftHandPinky4]
36	19.75699997	0	0	0	0	0	1.0
37	19.75699997	0	0	0	0	0	1.0
38	19.75699997	0	0	0	0	0	1.0
39	19.75699997	0	0	0	0	0	1.0
[RightShoulder]
36	-45.70000076	109.4620056	-26.28000069	5.519303322	-10.1115675	-7.422923088	1.0
37	-45.70000076	109.4620056	-26.28000069	9.703596115	-16.21813774	-14.56499672	1.0
38	-45.70000076	109.4620056	-26.28000069	8.471524239	-12.13712502	-16.15910339	1.0
39	-45.70000076	109.4620056	-26.28000069	6.220246792	-5.09995842	-16.25371742	1.0
[RightArm]
36	-105.9280014	-5.248000145	-22.32099915	-154.7666779	53.1135788	-86.78040314	1.0
37	-105.9280014	-5.248000145	-22.32099915	-168.8905334	54.01547623	-89.84615326	1.0
38	-105.9280014	-5.248000145	-22.32099915	-137.3045197	71.46995544	-60.57855988	1.0
39	-105.9280014	-5.248000145	-22.32099915	-120.7846985	61.70429611	-46.35016632	1.0
[RightForeArm]
36	-278.414978	0	0	-3.342828512	71.0457077	-4.086865902	1.0
37	-278.414978	0	0	-137.3617706	86.87633514	-135.7863464	1.0
38	-278.414978	0	0	-173.5461884	80.40894318	-172.5305328	1.0
39	-278.414978	0	0	-184.449585	96.45846558	-183.585907	1.0
[RightHand]
36	-283.2879944	0	0.0009999999311	10.9000864	2.958671331	-8.176485062	1.0
37	-283.2879944	0	0.0009999999311	34.18981552	29.16699028	-12.18319321	1.0
38	-283.2879944	0	0.0009999999311	49.32053757	37.96480942	-8.89910984	1.0
39	-283.2879944	0	0.0009999999311	46.623909	34.3855629	-14.86469173	1.0
[RightHandPinky1]
36	-80.76699829	-4.885000229	-38.06000137	-0.7664649487	-9.935697556	32.57832336	1.0
37	-80.76699829	-4.885000229	-38.06000137	-0.7998312712	-9.259317398	35.32593918	1.0
38	-80.76699829	-4.885000229	-38.06000137	-0.8170039654	-8.585793495	38.03894424	1.0
39	-80.76699829	-4.885000229	-38.06000137	-0.8176511526	-7.966151714	40.51843262	1.0
[RightHandPinky2]
36	-36	0	0.0009999999311	5.42174387	6.718903542	42.51151276	1.0
37	-36	0	0.0009999999311	5.797128201	6.672862053	44.61682892	1.0
38	-36	0	0.0009999999311	6.166612148	6.613702297	46.70016861	1.0
39	-36	0	0.0009999999311	6.503408909	6.547533035	48.61279678	1.0
[RightHandPinky3]
36	-21.14200211	0	0	-1.590277359e-15	0	-7.951386796e-16	1.0
37	-21.14200211	0	0	-1.590277359e-15	0	-7.951386796e-16	1.0
38	-21.14200211	0	0	-1.590277359e-15	0	-7.951386796e-16	1.0
39	-21.14200211	0	0	-1.590277359e-15	0	-7.951386796e-16	1.0
[RightHandPinky4]
36	-19.75699997	0	0	0	0	0	1.0
37	-19.75699997	0	0	0	0	0	1.0
38	-19.75699997	0	0	0	0	0	1.0
39	-19.75699997	0	0	0	0	0	1.0
[RightHandRing1]
36	-91.03599548	-0.4390000105	-18.65100098	-1.73162508	-5.455123901	32.32717514	1.0
37	-91.03599548	-0.4390000105	-18.65100098	-1.853946924	-5.214693069	34.87397385	1.0
38	-91.03599548	-0.4390000105	-18.65100098	-1.960647345	-4.9730196	37.3911438	1.0
39	-91.03599548	-0.4390000105	-18.65100098	-2.046003819	-4.748788834	39.69438553	1.0
[RightHandRing2]
36	-31.54000092	0	0	1.72924757	3.108986139	30.7935524	1.0
37	-31.54000092	0	0	2.055222511	3.294630051	34.27192688	1.0
38	-31.54000092	0	0	2.388209343	3.458474874	37.71347809	1.0
39	-31.54000092	0	0	2.701228857	3.590717793	40.86555862	1.0
[RightHandRing3]
36	-29.37700081	0	0	5.740008078e-07	-7.531911024e-07	-2.69121324e-06	1.0
37	-29.37700081	0	0	5.740008078e-07	-7.531911024e-07	-2.69121324e-06	1.0
38	-29.37700081	0	0	5.740008078e-07	-7.531911024e-07	-2.69121324e-06	1.0
39	-29.37700081	0	0	5.740008078e-07	-7.531911024e-07	-2.69121324e-06	1.0
[RightHandRing4]
36	-26.47500038	0	0	0	0	0	1.0
37	-26.47500038	0	0	0	0	0	1.0
38	-26.47500038	0	0	0	0	0	1.0
39	-26.47500038	0	0	0	0	0	1.0
[RightHandMiddle1]
36	-95.32500458	0	0	-2.074091911	0.4494685531	21.542202	1.0
37	-95.32500458	0	0	-2.15770483	0.6067781448	22.88265038	1.0
38	-95.32500458	0	0	-2.236797333	0.7642023563	24.20808983	1.0
39	-95.32500458	0	0	-2.306034803	0.9099377394	25.42140961	1.0
[RightHandMiddle2]
36	-36.98199844	0	0	-0.7477442026	1.818535209	27.48546219	1.0
37	-36.98199844	0	0	-0.8506655097	2.283736229	31.95722961	1.0
38	-36.98199844	0	0	-0.9164851904	2.750320435	36.38041306	1.0
39	-36.98199844	0	0	-0.9449697137	3.18079257	40.43100739	1.0
[RightHandMiddle3]
36	-29.50900078	0	0	1.856611448e-06	-0.002022909233	1.577868488e-06	1.0
37	-29.50900078	0	0	1.856611448e-06	-0.002022909233	1.577868488e-06	1.0
38	-29.50900078	0	0	1.856611448e-06	-0.002022909233	1.577868488e-06	1.0
39	-29.50900078	0	0	1.856611448e-06	-0.002022909233	1.577868488e-06	1.0
[RightHandMiddle4]
36	-28.3390007	0	0.0009999999311	0	0	0	1.0
37	-28.3390007	0	0.0009999999311	0	0	0	1.0
38	-28.3390007	0	0.0009999999311	0	0	0	1.0
39	-28.3390007	0	0.0009999999311	0	0	0	1.0
[RightHandIndex1]
36	-91.08300018	-5.167999744	22.60099792	-1.348386168	1.365794778	11.73635769	1.0
37	-91.08300018	-5.167999744	22.60099792	-1.432373881	1.609018683	12.97937393	1.0
38	-91.08300018	-5.167999744	22.60099792	-1.512788773	1.851687551	14.20814514	1.0
39	-91.08300018	-5.167999744	22.60099792	-1.583908796	2.075669527	15.33268929	1.0
[RightHandIndex2]
36	-36.76399994	0	0	-0.7181746364	-0.2712214291	24.44494247	1.0
37	-36.76399994	0	0	-0.8936566114	0.0837193206	27.53024864	1.0
38	-36.76399994	0	0	-1.048168421	0.443536967	30.58048248	1.0
39	-36.76399994	0	0	-1.172650695	0.7797541618	33.37232971	1.0
[RightHandIndex3]
36	-28.83100128	0	0	-3.180554719e-15	0	0	1.0
37	-28.83100128	0	0	-3.180554719e-15	0	0	1.0
38	-28.83100128	0	0	-3.180554719e-15	0	0	1.0
39	-28.83100128	0	0	-3.180554719e-15	0	0	1.0
[RightHandIndex4]
36	-23.92700005	0	0	0	0	0	1.0
37	-23.92700005	0	0	0	0	0	1.0
38	-23.92700005	0	0	0	0	0	1.0
39	-23.92700005	0	0	0	0	0	1.0
[RightHandThumb1]
36	-24.64799881	-15.72700024	26.82600021	-5.200287342	0.201434806	-12.81300163	1.0
37	-24.64799881	-15.72700024	26.82600021	-5.280608654	-0.4121412635	-12.83669376	1.0
38	-24.64799881	-15.72700024	26.82600021	-5.353362083	-1.015919805	-12.85857201	1.0
39	-24.64799881	-15.72700024	26.82600021	-5.404070854	-1.557971954	-12.88848495	1.0
[RightHandThumb2]
36	-32.29800034	-18.64699936	18.64699936	6.904182911	-11.4451952	-1.980311036	1.0
37	-32.29800034	-18.64699936	18.64699936	8.302639961	-13.52019787	-3.1536057	1.0
38	-32.29800034	-18.64699936	18.64699936	9.701434135	-15.56606102	-4.398343563	1.0
39	-32.29800034	-18.64699936	18.64699936	11.00406456	-17.43084908	-5.596498966	1.0
[RightHandThumb3]
36	-26.52600098	-15.31399918	15.31399918	-3.81245151e-08	-0.00121095567	-0.001221005921	1.0
37	-26.52600098	-15.31399918	15.31399918	-3.81245151e-08	-0.00121095567	-0.001221005921	1.0
38	-26.52600098	-15.31399918	15.31399918	-3.81245151e-08	-0.00121095567	-0.001221005921	1.0
39	-26.52600098	-15.31399918	15.31399918	-3.81245151e-08	-0.00121095567	-0.001221005921	1.0
[RightHandThumb4]
36	-19.54599953	-11.28499985	11.28499985	0	0	0	1.0
37	-19.54599953	-11.28499985	11.28499985	0	0	0	1.0
38	-19.54599953	-11.28499985	11.28499985	0	0	0	1.0
39	-19.54599953	-11.28499985	11.28499985	0	0	0	1.0
[LeftUpLeg]
36	82.07800293	-67.51699829	-15.99599934	-46.37799454	19.67989349	15.19226837	1.0
37	82.07800293	-67.51699829	-15.99599934	-24.40415955	21.62847137	22.04610252	1.0
38	82.07800293	-67.51699829	-15.99599934	-9.144001961	18.20024681	19.70895386	1.0
39	82.07800293	-67.51699829	-15.99599934	-9.632303238	12.2127533	14.05279541	1.0
[LeftLeg]
36	0	-443.7049866	2.845999956	91.60784912	0.8320037127	-7.68262291	1.0
37	0	-443.7049866	2.845999956	80.03372192	-2.721712112	-9.429207802	1.0
38	0	-443.7049866	2.845999956	70.04051208	-5.359393597	7.947378635	1.0
39	0	-443.7049866	2.845999956	76.87799835	-7.883430958	20.96149635	1.0
[LeftFoot]
36	0	-444.2789917	-29.8219986	-17.00540161	-4.536837101	-3.693781614	1.0
37	0	-444.2789917	-29.8219986	-3.182240009	-5.281527996	-13.20463562	1.0
38	0	-444.2789917	-29.8219986	12.63466835	-5.626227856	-10.49510002	1.0
39	0	-444.2789917	-29.8219986	22.48592758	-5.620147705	0.2845229506	1.0
[LeftToeBase]
36	0	-87.28699493	107.1060028	-4.169393539	2.505996918e-06	-3.307447287e-06	1.0
37	0	-87.28699493	107.1060028	-4.175909519	9.96705694e-06	2.841706646e-06	1.0
38	0	-87.28699493	107.1060028	2.051167011	3.150802058e-06	-8.638149666e-06	1.0
39	0	-87.28699493	107.1060028	8.463505745	1.758724284e-05	-1.437586616e-05	1.0
[RightUpLeg]
36	-82.07800293	-67.51699829	-15.99599934	-47.08655548	-13.36158085	2.184996128	1.0
37	-82.07800293	-67.51699829	-15.99599934	-25.1926403	-14.15519714	-1.297809839	1.0
38	-82.07800293	-67.51699829	-15.99599934	-9.607822418	-7.073964596	-4.956562042	1.0
39	-82.07800293	-67.51699829	-15.99599934	-8.957619667	0.7104052901	-5.768239498	1.0
[RightLeg]
36	0	-443.7049866	2.861999989	89.71868896	-0.08066527545	1.878641129	1.0
37	0	-443.7049866	2.861999989	76.7496109	2.08838439	5.541812897	1.0
38	0	-443.7049866	2.861999989	66.31993866	2.581873417	2.302586555	1.0
39	0	-443.7049866	2.861999989	73.32116699	-0.08682502806	-3.857839823	1.0
[RightFoot]
36	0	-444.2770081	-29.83799934	-20.98340416	-0.808644712	-4.29304266	1.0
37	0	-444.2770081	-29.83799934	-22.88728905	-1.101144195	-6.254850864	1.0
38	0	-444.2770081	-29.83799934	-21.30341148	-1.641065598	-9.029586792	1.0
39	0	-444.2770081	-29.83799934	-22.70909691	-0.07626248151	-9.916171074	1.0
[RightToeBase]
36	0	-87.28699493	107.1060028	-6.53617382	-2.874409802e-06	-7.486253821e-07	1.0
37	0	-87.28699493	107.1060028	-10.70760727	-1.705566092e-06	-5.84995496e-06	1.0
38	0	-87.28699493	107.1060028	-9.180220604	-8.638152167e-07	1.808125717e-06	1.0
39	0	-87.28699493	107.1060028	0.8966795802	-1.107070347e-07	-9.781972039e-06	1.0
[EndOfFile]
